<svg viewBox="0 0 800 316" fill="none" xmlns="http://www.w3.org/2000/svg">
<g filter="url(#filter0_d_59_7127)">
<path d="M761.695 257.249C828.494 257.249 882.645 200.811 882.645 131.192C882.645 61.5725 828.494 5.13477 761.695 5.13477C699.728 5.13477 648.645 53.7028 641.579 116.307C636.524 115.468 631.331 115.031 626.035 115.031C579.437 115.031 540.829 148.858 533.958 193.032C525.866 190.653 517.267 189.372 508.354 189.372C476.414 189.372 448.512 205.819 433.491 230.296C424.808 226.833 415.32 224.927 405.383 224.927C384.072 224.927 364.832 233.693 351.15 247.779C337.191 222.789 307.439 205.533 272.991 205.533C250.781 205.533 230.523 212.706 215.192 224.5C194.795 195.952 153.678 176.443 106.276 176.443C38.5744 176.443 -16.3086 216.239 -16.3086 265.33C-16.3086 314.42 38.5744 354.216 106.276 354.216C144.568 354.216 178.76 341.485 201.24 321.542C216.817 341.259 243.141 354.216 272.991 354.216C298.305 354.216 321.082 344.898 336.921 330.041C348.756 355.742 374.959 373.609 405.383 373.609C430.113 373.609 452.055 361.803 465.758 343.58C478.336 350.351 492.87 354.216 508.354 354.216C548.504 354.216 582.274 328.227 592.096 292.965C602.612 297.034 614.06 299.268 626.035 299.268C663.627 299.268 696.019 277.253 710.743 245.551C726.228 253.058 743.492 257.249 761.695 257.249Z" fill="#A5C7F0"/>
</g>
<defs>
<filter id="filter0_d_59_7127" x="-21.3086" y="0.134766" width="908.954" height="378.475" filterUnits="userSpaceOnUse" color-interpolation-filters="sRGB">
<feFlood flood-opacity="0" result="BackgroundImageFix"/>
<feColorMatrix in="SourceAlpha" type="matrix" values="0 0 0 0 0 0 0 0 0 0 0 0 0 0 0 0 0 0 127 0" result="hardAlpha"/>
<feOffset/>
<feGaussianBlur stdDeviation="2.5"/>
<feComposite in2="hardAlpha" operator="out"/>
<feColorMatrix type="matrix" values="0 0 0 0 0 0 0 0 0 0 0 0 0 0 0 0 0 0 0.1 0"/>
<feBlend mode="normal" in2="BackgroundImageFix" result="effect1_dropShadow_59_7127"/>
<feBlend mode="normal" in="SourceGraphic" in2="effect1_dropShadow_59_7127" result="shape"/>
</filter>
</defs>
</svg>
