<svg viewBox="0 0 764 275" fill="none" xmlns="http://www.w3.org/2000/svg">
<g filter="url(#filter0_d_59_7128)">
<path d="M784.536 6.15381C851.335 6.15382 905.486 62.592 905.486 132.211C905.486 201.831 851.335 258.268 784.536 258.268C766.332 258.268 749.068 254.075 733.582 246.568C718.858 278.271 686.468 300.288 648.876 300.288C636.9 300.288 625.452 298.052 614.935 293.982C605.114 329.244 571.346 355.235 531.195 355.235C515.711 355.235 501.177 351.368 488.599 344.596C474.896 362.82 452.955 374.628 428.224 374.628C397.8 374.628 371.597 356.76 359.762 331.058C343.923 345.916 321.146 355.236 295.832 355.236C265.981 355.236 239.657 342.277 224.079 322.558C201.6 342.502 167.41 355.235 129.117 355.235C61.4157 355.235 6.53252 315.44 6.53223 266.349C6.53223 217.258 61.4156 177.462 129.117 177.462C176.519 177.462 217.635 196.972 238.031 225.521C253.363 213.727 273.621 206.552 295.832 206.552C330.28 206.552 360.031 223.809 373.99 248.798C387.672 234.713 406.912 225.946 428.224 225.946C438.162 225.946 447.649 227.853 456.333 231.317C471.353 206.839 499.256 190.391 531.195 190.391C540.108 190.391 548.707 191.673 556.799 194.051C563.67 149.877 602.278 116.05 648.876 116.05C654.173 116.05 659.366 116.487 664.422 117.327C671.488 54.7223 722.569 6.15381 784.536 6.15381Z" fill="#FBFDFF"/>
</g>
<defs>
<filter id="filter0_d_59_7128" x="0.532227" y="0.153809" width="910.954" height="380.475" filterUnits="userSpaceOnUse" color-interpolation-filters="sRGB">
<feFlood flood-opacity="0" result="BackgroundImageFix"/>
<feColorMatrix in="SourceAlpha" type="matrix" values="0 0 0 0 0 0 0 0 0 0 0 0 0 0 0 0 0 0 127 0" result="hardAlpha"/>
<feOffset/>
<feGaussianBlur stdDeviation="3"/>
<feComposite in2="hardAlpha" operator="out"/>
<feColorMatrix type="matrix" values="0 0 0 0 0 0 0 0 0 0 0 0 0 0 0 0 0 0 0.1 0"/>
<feBlend mode="normal" in2="BackgroundImageFix" result="effect1_dropShadow_59_7128"/>
<feBlend mode="normal" in="SourceGraphic" in2="effect1_dropShadow_59_7128" result="shape"/>
</filter>
</defs>
</svg>
