<svg viewBox="0 0 273 300" fill="none" xmlns="http://www.w3.org/2000/svg">
<path d="M20.3973 47.1913L23.2549 62.025C23.4878 63.2339 24.4356 64.1778 25.6455 64.4057L40.6687 67.2351L25.6455 70.0646C24.4356 70.2924 23.4878 71.2363 23.2549 72.4453L20.3973 87.2789L17.5398 72.4453C17.3069 71.2363 16.3591 70.2924 15.1492 70.0646L0.125977 67.2351L15.1492 64.4057C16.3591 64.1778 17.3069 63.2339 17.5398 62.025L20.3973 47.1913Z" fill="#C5C7CF"/>
<path d="M185.271 0L188.129 14.8337C188.362 16.0426 189.31 16.9865 190.519 17.2144L205.543 20.0438L190.519 22.8733C189.31 23.1011 188.362 24.0451 188.129 25.254L185.271 40.0877L182.414 25.254C182.181 24.0451 181.233 23.1011 180.023 22.8733L165 20.0438L180.023 17.2144C181.233 16.9865 182.181 16.0426 182.414 14.8337L185.271 0Z" fill="#C5C7CF"/>
<path d="M153.271 99L156.129 113.834C156.362 115.043 157.31 115.987 158.519 116.214L173.543 119.044L158.519 121.873C157.31 122.101 156.362 123.045 156.129 124.254L153.271 139.088L150.414 124.254C150.181 123.045 149.233 122.101 148.023 121.873L133 119.044L148.023 116.214C149.233 115.987 150.181 115.043 150.414 113.834L153.271 99Z" fill="#C5C7CF"/>
<path d="M255.375 265L257.77 277.428C258.003 278.637 258.95 279.581 260.16 279.809L272.751 282.18L260.16 284.552C258.95 284.78 258.003 285.724 257.77 286.932L255.375 299.361L252.981 286.932C252.748 285.724 251.801 284.78 250.591 284.552L238 282.18L250.591 279.809C251.801 279.581 252.748 278.637 252.981 277.428L255.375 265Z" fill="#C5C7CF"/>
<path d="M88.3755 239L90.7696 251.428C91.0025 252.637 91.9504 253.581 93.1602 253.809L105.751 256.18L93.1602 258.552C91.9504 258.78 91.0025 259.724 90.7696 260.932L88.3755 273.361L85.9813 260.932C85.7484 259.724 84.8005 258.78 83.5907 258.552L71 256.18L83.5907 253.809C84.8005 253.581 85.7484 252.637 85.9813 251.428L88.3755 239Z" fill="#C5C7CF"/>
</svg>
