<svg viewBox="0 0 279 210" fill="none" xmlns="http://www.w3.org/2000/svg">
<path d="M185.688 192L186.692 197.213C186.925 198.422 187.873 199.365 189.082 199.593L194.375 200.59L189.082 201.587C187.873 201.815 186.925 202.759 186.692 203.968L185.688 209.18L184.684 203.968C184.451 202.759 183.503 201.815 182.293 201.587L177 200.59L182.293 199.593C183.503 199.365 184.451 198.422 184.684 197.213L185.688 192Z" fill="#C5C7CF"/>
<path d="M266.584 86L268.051 93.6179C268.284 94.8268 269.232 95.7707 270.442 95.9986L278.167 97.4536L270.442 98.9086C269.232 99.1365 268.284 100.08 268.051 101.289L266.584 108.907L265.116 101.289C264.883 100.08 263.935 99.1365 262.726 98.9086L255 97.4536L262.726 95.9986C263.935 95.7707 264.883 94.8268 265.116 93.6179L266.584 86Z" fill="#C5C7CF"/>
<path d="M121.688 6L122.692 11.2127C122.925 12.4216 123.873 13.3655 125.082 13.5933L130.375 14.5902L125.082 15.5871C123.873 15.815 122.925 16.7589 122.692 17.9678L121.688 23.1804L120.684 17.9678C120.451 16.7589 119.503 15.815 118.293 15.5871L113 14.5902L118.293 13.5933C119.503 13.3655 120.451 12.4216 120.684 11.2127L121.688 6Z" fill="#C5C7CF"/>
<path d="M228.688 188L229.692 193.213C229.925 194.422 230.873 195.365 232.082 195.593L237.375 196.59L232.082 197.587C230.873 197.815 229.925 198.759 229.692 199.968L228.688 205.18L227.684 199.968C227.451 198.759 226.503 197.815 225.293 197.587L220 196.59L225.293 195.593C226.503 195.365 227.451 194.422 227.684 193.213L228.688 188Z" fill="#C5C7CF"/>
<path d="M91.6877 97L92.6919 102.213C92.9248 103.422 93.8726 104.365 95.0825 104.593L100.375 105.59L95.0825 106.587C93.8726 106.815 92.9248 107.759 92.6919 108.968L91.6877 114.18L90.6836 108.968C90.4507 107.759 89.5028 106.815 88.293 106.587L83 105.59L88.293 104.593C89.5028 104.365 90.4507 103.422 90.6836 102.213L91.6877 97Z" fill="#C5C7CF"/>
<path d="M209.584 114L211.051 121.618C211.284 122.827 212.232 123.771 213.442 123.999L221.167 125.454L213.442 126.909C212.232 127.136 211.284 128.08 211.051 129.289L209.584 136.907L208.116 129.289C207.883 128.08 206.935 127.137 205.726 126.909L198 125.454L205.726 123.999C206.935 123.771 207.883 122.827 208.116 121.618L209.584 114Z" fill="#C5C7CF"/>
<path d="M11.5836 102L13.0511 109.618C13.284 110.827 14.2319 111.771 15.4417 111.999L23.1673 113.454L15.4417 114.909C14.2319 115.136 13.284 116.08 13.0511 117.289L11.5836 124.907L10.1161 117.289C9.88325 116.08 8.93541 115.137 7.72554 114.909L0 113.454L7.72554 111.999C8.93541 111.771 9.88325 110.827 10.1161 109.618L11.5836 102Z" fill="#C5C7CF"/>
</svg>
