<svg viewBox="0 0 350 350" fill="none" xmlns="http://www.w3.org/2000/svg">
<path d="M36.176 68.4561C22.4296 86.341 12.0643 106.955 6.02881 129.349H97.0685L36.176 68.4561Z" fill="#0052B4"/>
<path d="M343.972 129.349C337.936 106.955 327.57 86.3417 313.824 68.4568L252.933 129.349H343.972Z" fill="#0052B4"/>
<path d="M6.02881 220.653C12.0649 243.046 22.4303 263.66 36.176 281.544L97.0664 220.653H6.02881Z" fill="#0052B4"/>
<path d="M281.544 36.1762C263.659 22.4298 243.046 12.0645 220.652 6.02832V97.0673L281.544 36.1762Z" fill="#0052B4"/>
<path d="M68.4566 313.823C86.3415 327.57 106.955 337.935 129.348 343.971V252.933L68.4566 313.823Z" fill="#0052B4"/>
<path d="M129.348 6.02832C106.955 12.0645 86.3408 22.4298 68.4566 36.1755L129.348 97.0666V6.02832Z" fill="#0052B4"/>
<path d="M220.653 343.971C243.046 337.935 263.66 327.57 281.544 313.824L220.653 252.933V343.971Z" fill="#0052B4"/>
<path d="M252.933 220.653L313.824 281.545C327.57 263.66 337.936 243.046 343.972 220.653H252.933Z" fill="#0052B4"/>
<path d="M348.519 152.174H197.827L197.827 1.48135C190.354 0.508594 182.736 0 175 0C167.262 0 159.646 0.508594 152.174 1.48135V152.173L1.48135 152.173C0.508594 159.646 0 167.264 0 175C0 182.738 0.508594 190.354 1.48135 197.826H152.173L152.173 348.519C159.646 349.491 167.262 350 175 350C182.736 350 190.354 349.492 197.826 348.519V197.827L348.519 197.827C349.491 190.354 350 182.738 350 175C350 167.264 349.491 159.646 348.519 152.174Z" fill="#D80027"/>
<path d="M220.652 220.653L298.743 298.744C302.335 295.154 305.761 291.4 309.03 287.509L242.173 220.652L220.652 220.653Z" fill="#D80027"/>
<path d="M129.348 220.653H129.346L51.2559 298.743C54.8461 302.335 58.5997 305.761 62.4907 309.03L129.348 242.172V220.653Z" fill="#D80027"/>
<path d="M129.348 129.349V129.348L51.2565 51.2559C47.6649 54.8461 44.2388 58.5997 40.9698 62.4907L107.827 129.348L129.348 129.349Z" fill="#D80027"/>
<path d="M220.652 129.349L298.744 51.2565C295.154 47.6649 291.4 44.2388 287.509 40.9705L220.652 107.828V129.349Z" fill="#D80027"/>
</svg>
