<svg width="50" height="50" viewBox="0 0 50 50" fill="none" xmlns="http://www.w3.org/2000/svg">
<path d="M9.5101 25.8475C8.94258 25.1973 7.95551 25.1304 7.30545 25.6979C6.65537 26.2654 6.58845 27.2525 7.15597 27.9025L9.5101 25.8475ZM14.8807 34.375L13.7036 35.4025C14.0003 35.7425 14.4295 35.9375 14.8807 35.9375C15.3318 35.9375 15.761 35.7425 16.0577 35.4025L14.8807 34.375ZM32.4268 16.6526C32.9943 16.0025 32.9274 15.0155 32.2772 14.448C31.6272 13.8804 30.6401 13.9474 30.0726 14.5974L32.4268 16.6526ZM21.888 23.9725C21.3205 24.6225 21.3876 25.6096 22.0376 26.1771C22.6876 26.7446 23.6747 26.6777 24.2422 26.0275L21.888 23.9725ZM20.15 30.715C20.7175 30.065 20.6506 29.0779 20.0005 28.5104C19.3504 27.9429 18.3634 28.0098 17.7958 28.66L20.15 30.715ZM7.15597 27.9025L13.7036 35.4025L16.0577 33.3475L9.5101 25.8475L7.15597 27.9025ZM16.0577 35.4025L20.15 30.715L17.7958 28.66L13.7036 33.3475L16.0577 35.4025ZM24.2422 26.0275L28.3345 21.34L25.9803 19.2849L21.888 23.9725L24.2422 26.0275ZM28.3345 21.34L32.4268 16.6526L30.0726 14.5974L25.9803 19.2849L28.3345 21.34Z" fill="currentColor"/>
<path d="M41.667 15.7551L32.7382 25.1301M22.917 33.3333L23.8095 34.5051L28.2739 29.8176" stroke="currentColor" stroke-width="3" stroke-linecap="round" stroke-linejoin="round"/>
</svg>
