<svg width="50" height="50" viewBox="0 0 50 50" fill="none" xmlns="http://www.w3.org/2000/svg">
<path d="M14.7396 25.785C14.1721 25.1348 13.185 25.0679 12.5349 25.6354C11.8849 26.2029 11.8179 27.19 12.3855 27.84L14.7396 25.785ZM20.1101 34.3125L18.9331 35.34C19.2298 35.68 19.659 35.875 20.1101 35.875C20.5613 35.875 20.9905 35.68 21.2872 35.34L20.1101 34.3125ZM37.6563 16.5901C38.2238 15.94 38.1569 14.953 37.5067 14.3855C36.8567 13.8179 35.8696 13.8849 35.3021 14.5349L37.6563 16.5901ZM27.1175 23.91C26.55 24.56 26.6171 25.5471 27.2671 26.1146C27.9171 26.6821 28.9042 26.6152 29.4717 25.965L27.1175 23.91ZM25.3795 30.6525C25.947 30.0025 25.8801 29.0154 25.23 28.4479C24.5799 27.8804 23.5929 27.9473 23.0253 28.5975L25.3795 30.6525ZM12.3855 27.84L18.9331 35.34L21.2872 33.285L14.7396 25.785L12.3855 27.84ZM21.2872 35.34L25.3795 30.6525L23.0253 28.5975L18.9331 33.285L21.2872 35.34ZM29.4717 25.965L33.564 21.2775L31.2098 19.2224L27.1175 23.91L29.4717 25.965ZM33.564 21.2775L37.6563 16.5901L35.3021 14.5349L31.2098 19.2224L33.564 21.2775Z" fill="currentColor"/>
</svg>
