<svg width="30" height="30" viewBox="0 0 30 30" fill="none" xmlns="http://www.w3.org/2000/svg">
<path d="M6.27 5.24438H23.5556C24.1416 5.24438 24.6694 5.7722 24.6694 6.35813V23.6438C24.6694 24.2297 24.1416 24.7575 23.5556 24.7575H6.27C5.68406 24.7575 5.15625 24.2297 5.15625 23.6438V6.35813C5.15625 5.7722 5.68406 5.24438 6.27 5.24438ZM19.0134 16.2009H21.7087L21.8259 13.6228H19.0134V11.7188C19.0134 10.9866 19.1597 10.5759 20.0972 10.5759H21.7378L21.7969 8.17314C21.7969 8.17314 21.0647 8.05595 20.01 8.05595C17.4319 8.05595 16.2891 9.66751 16.2891 11.3963V13.6228H14.385V16.2009H16.2891V23.3494H19.0134V16.2009Z" fill="currentColor"/>
</svg>
