<svg width="30" height="30" viewBox="0 0 30 30" fill="none" xmlns="http://www.w3.org/2000/svg">
<path d="M14.9998 2.49997C12.0231 2.48874 9.14013 3.54015 6.86953 5.46505C4.59894 7.38994 3.0898 10.0619 2.61363 13.0003C2.13746 15.9387 2.72553 18.9506 4.27202 21.494C5.81851 24.0375 8.22191 25.9456 11.0498 26.875C11.6748 26.975 11.8748 26.5875 11.8748 26.25V24.1375C8.41231 24.8875 7.67481 22.5 7.67481 22.5C7.44137 21.7236 6.93531 21.0578 6.24981 20.625C5.11231 19.85 6.33731 19.875 6.33731 19.875C6.72969 19.9257 7.10551 20.0645 7.43669 20.281C7.76787 20.4974 8.04584 20.786 8.24981 21.125C8.59703 21.7424 9.17396 22.1977 9.85513 22.392C10.5363 22.5863 11.2666 22.5038 11.8873 22.1625C11.9443 21.5288 12.2232 20.9356 12.6748 20.4875C9.99981 20.2125 7.02481 19.1375 7.02481 14.375C6.98866 13.1268 7.43655 11.913 8.27481 10.9875C7.89423 9.91176 7.93895 8.7313 8.39981 7.68747C8.39981 7.68747 9.44981 7.34997 11.8373 8.93747C13.8843 8.38719 16.0403 8.38719 18.0873 8.93747C20.4748 7.32497 21.5248 7.68747 21.5248 7.68747C21.9857 8.7313 22.0304 9.91176 21.6498 10.9875C22.4881 11.913 22.936 13.1268 22.8998 14.375C22.8998 19.15 19.9748 20.2 17.1873 20.5125C17.4875 20.8142 17.7198 21.1767 17.8685 21.5755C18.0173 21.9743 18.0791 22.4003 18.0498 22.825V26.25C18.0498 26.5875 18.2498 26.9875 18.8873 26.875C21.71 25.9472 24.11 24.0442 25.6568 21.5073C27.2036 18.9704 27.7962 15.9655 27.3282 13.0312C26.8602 10.097 25.3624 7.42548 23.1031 5.49558C20.8439 3.56568 17.9711 2.50367 14.9998 2.49997Z" fill="currentColor"/>
<defs>
<rect width="30" height="30" fill="currentColor"/>
</clipPath>
</defs>
</svg>
