<svg width="30" height="30" viewBox="0 0 30 30" fill="none" xmlns="http://www.w3.org/2000/svg">
<path d="M22.7157 14.9657C22.8125 7.82772 19.9535 6.90387 13.4336 7.30025C8.94231 6.95381 7.17887 10.3558 7.1664 14.3789C6.92296 18.3177 8.13706 23.2959 13.0403 22.8777C19.1608 22.7684 22.9997 22.1473 22.7157 14.9657ZM12.0135 2.68103C19.0235 2.02872 27.1383 3.03372 27.2351 11.8071C27.4816 15.8458 27.6127 20.1748 25.6339 23.839C23.5272 27.422 20.016 27.2722 16.3643 27.3564C13.1526 27.4844 9.84118 27.7622 6.74506 26.7104C3.58962 25.618 2.73131 23.2366 2.79998 20.1217C2.69074 17.4407 2.5815 14.7659 2.62832 12.0818C2.78437 5.72097 5.56215 2.53434 12.0135 2.68103Z" fill="currentColor"/>
<path d="M14.8067 17.5032C11.3204 17.3596 12.2973 12.1255 15.4777 12.2909C18.5832 13.2242 18.0807 17.4252 14.8067 17.5032Z" fill="currentColor"/>
<path d="M15.7802 8.65483C20.7989 8.42699 21.3451 10.7709 21.3419 15.1904C21.3794 19.201 20.5867 21.0643 16.2702 21.2921C12.7558 21.7978 9.00113 21.932 8.7296 17.4033C8.45182 14.5974 8.03982 10.5587 11.0454 9.08864C12.5436 8.57993 14.2883 8.80152 15.7802 8.65483ZM14.7877 18.7703C19.9593 18.8265 20.2995 10.7179 14.8126 11.0893C10.3401 11.5262 9.88129 18.6205 14.7877 18.7703ZM18.7951 11.9757C20.131 12.1505 19.9437 10.1592 18.7265 10.2154C17.5467 10.2466 17.6872 11.9445 18.7951 11.9757Z" fill="currentColor"/>
</svg>
