<svg width="30" height="30" viewBox="0 0 30 30" fill="none" xmlns="http://www.w3.org/2000/svg">
<path d="M23.4 4.99996H6.7125C6.49741 4.98989 6.28244 5.02233 6.0799 5.09544C5.87736 5.16855 5.69124 5.28089 5.53216 5.42601C5.3731 5.57115 5.24421 5.74624 5.1529 5.94124C5.06159 6.13625 5.00962 6.34735 5 6.56246V23.2875C5.0126 23.7376 5.19707 24.166 5.51554 24.4844C5.834 24.8029 6.2623 24.9874 6.7125 25H23.4C23.8376 24.9805 24.2502 24.7902 24.5494 24.4701C24.8485 24.15 25.0103 23.7255 25 23.2875V6.56246C25.0036 6.35309 24.9644 6.1452 24.8848 5.95153C24.8051 5.75786 24.6867 5.5825 24.5369 5.43619C24.3871 5.28989 24.209 5.17574 24.0135 5.10073C23.818 5.02571 23.6092 4.99143 23.4 4.99996ZM11.25 21.675H8.3375V12.7625H11.25V21.675ZM9.8625 11.4125C9.65926 11.4195 9.45675 11.3845 9.2677 11.3096C9.07864 11.2347 8.90711 11.1215 8.76391 10.9771C8.6207 10.8327 8.50889 10.6603 8.43551 10.4706C8.36213 10.2809 8.32876 10.0781 8.3375 9.87496C8.32851 9.66959 8.36255 9.46461 8.43744 9.27318C8.51232 9.08173 8.6264 8.90805 8.77234 8.76329C8.91829 8.61851 9.09288 8.50585 9.28491 8.43253C9.47696 8.35919 9.68221 8.32681 9.8875 8.33746C10.0907 8.33039 10.2933 8.3654 10.4823 8.44033C10.6714 8.51525 10.8429 8.62846 10.9861 8.77285C11.1293 8.91724 11.2411 9.08968 11.3145 9.27934C11.3879 9.469 11.4212 9.67179 11.4125 9.87496C11.4215 10.0803 11.3874 10.2853 11.3126 10.4768C11.2377 10.6682 11.1236 10.8419 10.9777 10.9866C10.8317 11.1314 10.6571 11.2441 10.4651 11.3174C10.273 11.3907 10.0678 11.4231 9.8625 11.4125ZM21.675 21.675H18.75V16.8C18.75 15.6375 18.3375 14.8375 17.3 14.8375C16.9777 14.8403 16.6641 14.9426 16.4024 15.1306C16.1405 15.3186 15.9432 15.583 15.8375 15.8875C15.7563 16.1158 15.7222 16.3581 15.7375 16.6V21.675H12.8625V12.7625H15.7375V14.0125C15.9931 13.5429 16.3735 13.1531 16.8368 12.8861C17.3 12.6193 17.828 12.4856 18.3625 12.5C20.25 12.5 21.675 13.75 21.675 16.4125V21.675Z" fill="currentColor"/>
</svg>
