<svg width="220" height="220" viewBox="0 0 220 220" fill="none" xmlns="http://www.w3.org/2000/svg">
<rect x="105" y="105" width="55" height="10" rx="5" fill="currentColor"/>
<rect x="105" y="60" width="10" height="100" rx="5" fill="currentColor"/>
<path d="M10 13.0711V13.0711C13.9052 9.16583 20.2369 9.16583 24.1421 13.0711L87.7817 76.7107V76.7107C83.8765 80.6159 77.5449 80.6159 73.6396 76.7107L10 13.0711Z" fill="currentColor"/>
<path d="M110 15C110 17.7614 107.758 19.9856 105 20.1365C57.6202 22.7308 20 61.9721 20 110C20 159.706 60.2944 200 110 200C158.028 200 197.269 162.38 199.863 115C200.014 112.242 202.239 110 205 110C207.761 110 210.013 112.241 209.877 114.999C207.272 167.905 163.552 210 110 210C54.7715 210 10 165.228 10 110C10 56.4479 52.0948 12.7276 105.001 10.1228C107.759 9.987 110 12.2386 110 15Z" fill="currentColor"/>
<path d="M110 60C137.614 60 160 82.3858 160 110C160 137.614 137.614 160 110 160C84.0709 160 62.7516 140.263 60.2462 114.993C59.9737 112.245 62.2386 110 65 110C67.7614 110 69.9672 112.25 70.3082 114.99C72.7643 134.726 89.5985 150 110 150C132.091 150 150 132.091 150 110C150 87.9086 132.091 70 110 70V60Z" fill="currentColor"/>
</svg>
