<svg width="1100" height="1100" viewBox="0 0 1100 1100" fill="none" xmlns="http://www.w3.org/2000/svg">
<path d="M522.471 42.7999C422.071 50.9332 355.271 105.867 338.871 194C335.405 212.4 335.271 264.533 338.738 285.733C341.805 304.8 341.938 304 336.071 304C325.138 304 312.738 314.133 308.338 326.533C307.005 329.867 305.805 338.533 305.405 345.6L304.605 358.533L298.071 364.133C291.538 369.6 291.405 369.733 283.138 368.933C263.405 367.067 242.738 352 224.471 326C213.805 310.8 209.005 305.333 206.338 305.333C204.605 305.333 203.671 306.4 203.405 308.8C203.005 312.133 202.738 312 193.671 304C176.338 288.8 159.138 282.133 137.005 282.133C117.271 282.133 106.471 287.333 116.605 291.867C120.071 293.467 119.938 293.6 109.538 297.067C89.5379 303.867 71.8045 319.6 62.6045 338.667C58.6045 347.067 57.6712 350.4 57.2712 359.6C56.7379 370.4 56.7379 370.667 59.6712 370.667C61.4045 370.667 63.9379 369.733 65.2712 368.4C67.5379 366.4 67.6712 366.533 66.8712 372.8C66.4712 376.4 65.9379 380.4 65.6712 381.867C65.4045 383.2 65.8045 389.467 66.4712 395.867C68.7379 416.4 76.2045 434.267 87.5379 446.533C94.2045 453.733 97.4045 454.4 98.7379 449.067C99.4045 446.667 100.605 447.333 108.071 454.933C113.671 460.667 119.671 465.067 125.805 468.133C134.071 472.267 135.938 472.667 146.338 472.533C155.005 472.533 159.271 471.733 164.605 469.467C173.138 465.733 176.471 462.267 179.405 453.733C180.738 450 182.605 445.867 183.671 444.667C186.471 441.333 185.938 428.4 182.605 420.933C178.205 411.067 174.871 407.2 162.205 397.2C147.138 385.2 145.005 382.533 145.005 375.067C145.005 370 145.671 368.4 149.538 364.533C153.405 360.667 155.005 360 160.071 360C168.071 360 172.871 363.467 191.671 382.533C208.605 399.733 215.805 404.533 233.005 409.2C238.871 410.8 247.005 412 252.605 412H262.205L258.871 421.6C254.205 435.6 251.671 451.467 251.671 468.267C251.671 493.067 257.005 509.6 272.605 532.8C282.338 547.333 286.205 554.667 288.471 563.333C292.605 578.533 289.938 588.267 277.405 605.067C272.605 611.467 267.805 618.533 266.871 620.933C263.805 628.133 264.471 634.933 268.871 641.067C272.471 646 283.138 655.2 286.605 656.267C287.671 656.667 287.671 658 286.605 661.333C285.671 663.733 285.005 669.067 285.005 673.067C285.005 682.667 288.471 688.4 296.071 691.2C302.738 693.6 315.671 696 322.205 696C324.738 696 326.338 696.4 325.938 696.8C325.538 697.333 315.271 701.6 303.405 706.267C232.471 734.267 206.071 755.2 182.338 802.667C161.405 844.533 139.671 907.6 122.338 977.467C114.071 1010.8 105.005 1051.47 105.005 1055.6C105.005 1057.87 119.671 1058 545.671 1058C936.871 1058 986.338 1057.73 986.338 1056C986.338 1051.73 972.605 986.133 967.005 964C947.538 886.4 925.005 825.6 904.071 794.533C891.405 776 871.938 757.2 851.005 743.733C834.605 733.067 796.205 715.067 759.005 700.533C748.605 696.533 746.338 694.533 746.338 689.2C746.338 683.333 738.605 673.2 730.871 669.2C727.138 667.2 723.271 665.467 722.205 665.067C719.805 664.267 728.071 647.067 737.138 634C744.471 623.333 762.871 604.8 767.671 603.333C769.671 602.667 771.005 603.2 772.338 604.8C773.938 607.067 774.205 607.067 779.271 604.8C782.205 603.6 789.005 598.667 794.471 594C805.138 584.667 811.405 580.8 817.671 579.467C821.138 578.8 823.405 580 834.338 588.133C855.938 604.267 866.471 608.133 888.338 608.133C904.738 608.133 919.405 604.267 939.005 594.667C970.471 579.333 986.738 554.133 989.805 515.733L990.738 504.667L999.538 496C1019.4 476.533 1039.54 444.267 1042.74 426.933C1044.6 417.733 1035.27 414.8 1011.4 417.333C993.805 419.067 980.071 422.533 965.538 428.8L954.338 433.6L947.271 428.933C937.005 422.133 930.871 419.333 918.338 415.467C906.205 411.867 892.605 409.333 884.871 409.333C880.071 409.333 880.071 409.333 876.338 398.933C866.205 370.267 846.605 342.667 836.205 342.667C832.605 342.667 823.005 352.933 816.338 363.867C810.205 374 803.138 392.667 800.338 406C799.138 411.867 797.938 418.133 797.538 419.867C796.871 422.933 796.605 422.933 787.538 422.133C771.938 420.533 758.605 415.333 753.138 408.8C751.405 406.8 751.805 406 756.071 401.6C778.871 378.133 784.205 334 766.738 314.533C761.005 308.133 752.471 304 745.138 304C740.338 304 739.538 303.6 740.205 301.6C740.605 300.4 741.805 290.133 743.005 278.8C748.605 222 741.938 175.733 722.071 134.667C714.205 118.533 713.538 117.467 697.805 101.867C675.805 79.9999 655.671 66.7999 628.738 56.7999C597.805 45.3332 557.271 39.9999 522.471 42.7999ZM449.271 146.533C488.605 153.867 504.071 155.2 543.671 155.333C584.338 155.333 592.338 154.667 627.405 147.867C650.205 143.467 654.205 143.733 664.338 150.667C682.071 162.933 688.738 179.067 691.671 217.467C693.005 236.4 693.138 236.533 705.538 256.667C708.205 261.067 711.271 267.6 712.471 271.333C714.605 278.667 717.271 301.467 716.205 302.667C715.805 303.067 711.938 304 707.671 304.8C699.805 306.133 699.805 306.133 696.871 302.267C690.338 293.467 673.538 290.4 632.338 290.533C597.805 290.667 578.738 292.4 571.805 295.867C565.671 299.067 561.138 304.4 560.071 309.733C559.405 313.333 559.005 313.467 555.138 312.533C549.805 311.067 532.205 311.067 526.871 312.4C522.871 313.467 522.605 313.2 521.805 308.933C521.005 304.4 515.005 297.733 509.271 294.8C504.605 292.4 479.138 290.533 449.005 290.533C406.738 290.533 391.671 293.333 385.005 302.4C382.338 306 381.671 306.267 377.805 305.2C375.538 304.533 372.071 304 370.071 304C366.471 304 366.338 303.733 366.338 296.933C366.338 293.2 366.871 286.667 367.538 282.533C370.071 267.067 370.871 265.333 384.871 243.2C388.738 237.067 389.271 234.8 391.005 217.867C394.605 183.6 398.338 170.667 407.538 160.933C416.205 151.6 427.138 144.533 433.805 144.133C434.471 144 441.538 145.2 449.271 146.533ZM156.205 291.333C165.805 293.867 179.405 300.933 187.938 307.6L194.205 312.667L194.338 330.667C194.338 351.067 195.805 358.667 199.671 358.667C203.405 358.667 208.338 351.867 210.738 343.067C213.005 335.333 217.005 329.733 219.271 331.067C219.938 331.467 223.138 335.333 226.471 339.6L232.471 347.333L230.605 363.067C228.605 379.467 229.271 385.333 233.538 385.333C235.938 385.333 241.138 379.2 245.938 370.933C247.938 367.467 249.671 364.4 249.805 364.133C250.071 363.867 254.471 365.867 259.671 368.533C265.005 371.333 273.005 374.267 278.071 375.2L287.005 376.8L287.938 387.467C290.471 415.867 306.205 454.267 316.471 456.8C318.338 457.333 320.471 457.067 321.005 456.533C321.805 455.733 320.071 448.8 317.005 439.333C310.471 419.2 309.005 410 309.138 390V374L312.471 381.2C317.005 391.333 326.605 404.267 332.605 408.4C337.405 411.733 338.071 412.933 341.005 424.4C346.338 445.333 359.538 467.333 363.938 462.933C365.005 461.867 364.871 458.267 363.271 448.4C362.071 441.2 360.738 432.267 360.338 428.667L359.538 421.867L371.938 422.133L376.338 435.733C390.205 478.667 411.271 503.467 457.138 530.933C465.405 535.867 472.738 540.133 473.538 540.4C474.338 540.667 475.138 546.667 475.405 554.133L475.938 567.333L467.805 570.8C458.605 574.933 454.871 579.867 453.538 589.6C453.005 593.2 451.938 596 451.138 596C447.005 595.867 416.471 587.6 414.605 585.867C414.338 585.733 415.671 582.933 417.405 579.733C419.271 576.533 422.338 568.933 424.338 562.667C427.138 553.333 427.671 549.2 427.405 539.333C427.005 528.4 426.738 527.333 424.338 527.333C421.938 527.333 421.538 528.533 420.871 540.267C419.671 557.867 419.805 557.733 412.071 556.667C396.071 554.4 381.405 550.4 371.538 545.467C365.538 542.533 359.938 540.533 358.871 540.933C355.405 542.267 356.871 548.667 361.805 554.4C367.138 560.667 379.271 570.267 386.338 574C388.871 575.333 394.605 577.467 398.871 578.667C403.271 579.867 407.005 581.467 407.271 582.133C407.538 582.8 405.938 585.867 403.805 588.8L399.805 594.267L385.405 591.2C377.538 589.467 366.605 586.533 361.138 584.667C355.671 582.8 349.805 581.333 348.205 581.333C343.671 581.333 342.071 585.2 344.738 589.733C347.138 593.733 362.605 606 370.338 610L374.871 612.4L370.205 614.667C367.805 616 362.338 617.733 358.338 618.667C349.538 620.8 348.471 621.6 349.671 625.2C350.205 627.067 356.471 630.933 369.271 637.333L388.071 646.667H405.538C420.071 646.667 423.805 647.067 427.671 649.2C433.405 652.267 436.738 656.667 437.805 662.667L438.605 667.333L435.805 663.067C432.738 658.133 426.205 654.267 421.938 654.933C418.338 655.467 417.271 659.733 420.605 660.8C426.471 662.667 429.538 664.933 431.405 668.8C433.805 674.133 433.005 676.533 427.405 680C421.671 683.467 421.405 683.467 420.471 678C418.738 669.067 409.005 661.333 401.671 663.2C395.671 664.667 398.471 670.667 405.271 670.667C409.805 670.667 413.405 675.6 412.738 680.933L412.338 684.667L399.005 684.533C382.871 684.4 369.138 681.6 353.405 675.6C347.005 673.067 332.738 667.6 321.671 663.333C310.738 659.067 298.071 654 293.671 652C281.005 646.4 271.671 636.8 271.671 629.6C271.671 627.2 272.738 627.067 286.738 627.067C303.405 627.067 313.405 624.8 314.071 620.8C314.738 617.6 313.405 616.8 298.738 611.867C291.938 609.6 286.338 607.333 286.338 606.8C286.338 606.267 288.471 602 291.005 597.333C293.538 592.533 295.938 586 296.471 582.667L297.271 576.533L309.538 577.067C322.738 577.467 328.338 575.867 328.338 571.333C328.338 568.667 327.671 568.267 311.671 560.8C298.338 554.667 292.071 549.067 281.538 533.6C264.738 509.2 258.338 491.067 258.338 468C258.338 450.8 263.805 424.8 269.805 413.067C270.871 411.067 271.671 408.267 271.671 406.8C271.671 404.267 271.138 404.133 261.271 404.933C233.938 406.933 214.338 398 191.271 372.933C183.271 364.133 177.538 359.2 173.138 357.067C167.271 354.4 166.338 353.333 165.005 348C162.871 339.467 155.938 327.067 151.138 323.067C147.005 319.6 133.805 313.067 128.071 311.6C123.138 310.533 124.205 314.8 130.738 322.667C139.005 332.933 141.938 338.133 144.338 347.733C146.205 355.2 146.205 356.667 144.605 358.267C143.005 360 141.671 359.867 135.671 358.133C125.005 354.933 112.338 355.333 104.338 359.2C100.738 360.933 96.6045 363.6 95.1379 365.067C92.2045 368.533 93.1379 372.8 96.7379 371.2C103.938 368 121.938 370.4 132.871 376C138.871 378.933 141.271 384.533 137.671 387.2C136.471 388.133 135.005 390.667 134.605 393.067L133.671 397.333L128.738 393.867C123.805 390.4 123.538 390.267 121.005 392.667C119.271 394.267 118.338 396.8 118.338 400.267V405.467L113.671 401.867C111.138 400 108.205 398.667 107.138 399.067C104.871 400 103.271 408.267 104.338 413.467C105.405 418.267 104.205 418.267 98.3379 413.333C95.8045 411.067 93.4045 409.333 92.8712 409.333C91.4045 409.333 90.0712 413.467 88.3379 424.667L86.7379 435.333L81.9379 425.333C73.9379 408.4 70.7379 382.933 74.4712 366.8C75.5379 362 75.4045 360.533 73.8045 358.933C72.2045 357.2 71.4045 357.333 67.6712 359.2L63.4045 361.333L64.3379 354.933C67.9379 329.867 95.6712 304.533 123.405 300.667C129.271 299.867 130.338 299.333 130.338 296.933C130.338 295.467 129.405 293.067 128.071 291.733C126.071 289.467 126.338 289.333 137.138 289.333C143.405 289.333 151.938 290.267 156.205 291.333ZM496.071 303.867C509.938 305.733 511.671 308 511.671 323.2C511.671 346 506.605 367.867 499.938 373.733C496.605 376.667 485.805 378.4 462.338 379.467C441.405 380.533 409.938 378.133 405.405 375.2C398.205 370.667 395.138 361.067 393.005 335.333C390.471 307.6 392.205 305.067 414.605 302.8C428.871 301.333 482.471 302 496.071 303.867ZM665.805 302.8C689.405 305.2 691.138 307.067 689.671 329.333C687.938 357.333 683.938 371.733 677.005 375.333C669.271 379.333 628.605 381.067 602.871 378.533C586.738 376.933 581.805 374.933 577.938 368.267C574.205 361.867 570.071 339.6 569.805 325.067C569.671 313.2 569.938 312 572.871 308.8C576.605 304.8 579.271 304.267 598.338 302.8C619.671 301.2 649.538 301.2 665.805 302.8ZM349.005 312.667C355.938 316.267 357.138 318.933 358.471 334.267C360.738 361.2 366.605 401.467 369.805 412.267C370.471 414.267 369.538 414.667 364.471 414.667C339.938 414.667 314.738 385.467 312.071 354C309.805 327.2 323.271 307.333 341.671 310.4C343.938 310.8 347.138 311.867 349.005 312.667ZM753.538 312.533C763.538 316.667 770.738 331.2 770.738 347.467C770.738 358.8 768.338 368 762.338 380.8C753.005 400.133 733.938 414.667 717.805 414.667H711.938L713.805 406.267C716.738 394 721.938 357.867 723.671 338C724.605 328.4 726.071 319.467 727.005 317.867C731.138 311.467 744.471 308.667 753.538 312.533ZM378.338 318.667C380.205 319.6 380.738 322.533 381.405 333.6C383.138 361.067 386.605 373.467 394.871 381.067C403.538 389.067 409.671 390 451.005 390C514.071 390 515.138 389.2 523.138 331.2C523.538 328 524.738 326.533 528.071 325.2C533.538 322.8 548.471 322.8 553.805 325.067C557.938 326.8 558.071 327.2 559.671 339.733C563.271 369.733 569.538 382.267 582.605 386.533C601.938 392.667 669.405 391.867 682.605 385.2C688.471 382.267 692.738 376.533 695.271 368.267C697.805 359.867 701.005 337.733 701.005 328.8C701.005 324.133 701.671 320.8 703.005 319.467C705.138 317.333 716.605 315.067 717.938 316.533C718.471 316.933 717.805 328.933 716.605 343.067C714.205 370.533 706.605 411.867 700.338 432C691.271 460.8 677.005 482.4 653.938 502.4C623.138 529.2 591.405 543.733 554.738 548C514.605 552.667 465.271 534.533 425.938 500.8C396.738 475.6 382.471 446.133 372.471 390C368.205 366.8 365.005 338.533 365.005 325.467V315.6L370.471 316.533C373.538 317.067 377.005 318 378.338 318.667ZM840.338 364.8C846.471 377.067 852.871 401.333 854.205 417.067C854.871 424.933 855.405 427.333 857.005 427.333C863.538 427.333 856.871 388.133 846.471 364.8C844.071 359.733 842.605 355.333 842.871 354.933C844.205 353.6 851.671 363.467 857.938 375.067C864.071 386.133 869.538 398.933 874.605 414C876.071 418.267 877.138 419.333 879.671 419.333C882.605 419.333 883.271 420.267 885.271 428C886.471 433.067 887.405 442.533 887.538 450.8C887.671 462.133 888.071 465.2 889.671 465.867C894.738 467.733 899.671 450.667 899.671 431.2C899.671 418.4 899.805 417.6 902.338 418.267C907.005 419.467 910.605 443.067 909.405 466.667C908.738 481.2 908.871 483.6 910.871 485.2C913.938 487.733 915.805 485.867 920.738 474.933C925.671 464.267 929.938 448.667 931.138 436.533C931.671 431.867 932.471 428 932.871 428C933.271 428 934.871 428.933 936.205 430C938.471 431.733 938.605 433.067 937.805 444.933C937.271 452.133 935.938 461.6 935.005 465.867C932.471 476.533 935.005 481.733 940.338 476.533C944.205 472.667 947.538 464.533 949.938 452.8C951.138 446.533 952.605 441.333 953.005 441.333C953.538 441.333 955.138 443.067 956.738 445.333C960.071 449.867 965.005 450.8 965.005 446.933C965.005 445.6 964.071 443.333 963.005 441.867C961.938 440.533 961.005 438.933 961.005 438.4C961.005 437.6 972.605 432.933 983.671 429.467C989.671 427.467 1011 424 1017 424C1021.14 424 1020.6 424.533 1010.34 429.733C992.071 438.8 975.671 452 975.671 457.467C975.671 460.8 977.271 460.667 980.471 457.2C983.805 453.467 1005.4 438.4 1012.87 434.667C1016.2 433.067 1022.74 430.267 1027.4 428.533L1035.94 425.2L1035.14 428.933C1033.4 435.6 1024.07 453.733 1015.8 466C1005.4 481.733 990.871 497.333 989.271 494.933C988.605 493.867 986.871 493.333 985.538 493.6C983.271 494 983.005 495.6 982.605 508.667C982.205 525.733 979.805 538.667 975.138 548.933L971.671 556.267L966.338 555.333C957.671 553.867 953.805 559.333 959.671 564.667C961.138 566 962.338 567.867 962.338 568.8C962.338 572.267 947.938 583.067 934.605 589.467C895.805 608 868.338 606.4 838.871 583.6C833.805 579.733 826.738 574.533 823.138 572.133C808.605 562 792.871 547.733 786.338 538.4C778.338 526.933 778.205 527.2 795.405 521.733C803.938 519.067 806.338 517.867 806.338 515.867C806.338 511.2 798.471 511.067 778.071 515.467C774.471 516.267 774.338 516 774.338 511.467C774.338 508 775.138 506.133 777.405 504.8C782.605 501.333 797.805 496.133 807.138 494.667C824.738 491.867 825.538 491.2 818.071 486.667C811.671 482.8 797.405 483.067 784.338 487.2L774.205 490.4L775.005 486.267C776.871 477.2 781.271 465.333 785.671 458C790.471 450.133 791.271 447.333 789.138 446.133C786.205 444.267 783.271 447.867 776.471 461.733C768.338 478.533 766.338 486.133 766.338 501.2C766.338 514.4 769.805 526 777.138 537.467C782.738 546 796.738 560.4 807.271 568.4C810.338 570.8 813.005 572.933 813.005 573.333C813.005 573.867 811.005 574.8 808.605 575.733C806.205 576.533 798.738 582.133 791.805 588C784.871 593.867 778.738 598.667 778.071 598.667C777.538 598.667 777.005 597.733 777.005 596.667C777.005 592.667 773.405 593.333 762.205 599.2C747.271 607.067 733.805 611.067 720.871 611.2C715.271 611.333 710.205 610.933 709.671 610.4C708.205 608.933 720.071 586 727.005 576.667C733.405 568.133 733.805 566.267 729.271 565.6C727.138 565.2 725.138 567.333 719.938 574.933C716.338 580.267 711.671 588 709.671 592C707.671 596 705.938 599.467 705.805 599.6C705.671 599.867 678.071 595.2 672.205 594C667.405 592.933 665.671 594.667 666.871 599.067C667.805 602.667 682.071 613.6 690.871 617.2C697.005 619.867 697.271 620.267 696.471 624.267C696.071 626.667 695.005 629.2 694.338 629.867C693.005 631.2 670.738 629.067 666.205 627.333C663.138 626.133 659.271 629.867 660.205 632.8C661.138 636 674.871 644.4 683.938 647.467C687.405 648.533 690.338 650.267 690.338 651.2C690.338 652.133 689.671 657.6 688.871 663.467C687.938 670.667 687.938 675.2 688.871 677.6C689.538 679.467 694.471 684.533 699.538 688.667C711.138 697.867 714.871 704.267 714.071 713.467C713.671 717.067 712.605 720.933 711.538 722.133C709.805 724.133 709.538 723.733 708.738 718.133C707.671 710.533 704.471 705.333 701.005 705.333C697.005 705.333 696.605 707.733 699.671 712.667C701.538 715.733 702.338 718.933 702.071 722.267L701.671 727.333L693.938 727.733C686.338 728.133 686.205 728 687.005 725.067C687.538 723.333 688.205 720.933 688.605 719.6C689.405 716.4 686.738 708.8 683.805 706.133C681.671 704.267 681.138 704.133 679.805 705.867C678.605 707.333 678.471 708.533 679.538 710.533C681.271 713.733 681.405 722.667 679.805 725.2C676.738 730 658.471 716.133 653.005 704.667C644.605 687.2 640.871 605.067 647.005 573.6C649.538 560.4 649.271 554.133 646.071 553.6C643.405 553.067 641.938 559.2 638.871 584.267C637.271 597.733 636.071 602.667 634.871 602.667C633.671 602.667 633.005 601.067 633.005 598C633.005 582.667 626.338 572.133 614.738 568.933L608.738 567.333L609.271 554.133C609.805 544.667 610.471 540.4 611.805 539.733C645.538 520.267 664.871 504.8 681.271 484.133C690.605 472.4 701.938 450.4 707.005 434.267C709.005 427.867 711.271 422.667 711.938 422.667C712.605 422.667 712.871 423.467 712.471 424.267C707.138 437.333 702.338 464.4 704.471 470C704.871 471.067 706.471 472 707.938 472C709.805 472 711.805 469.2 715.671 460.667C721.671 447.733 730.071 434.267 739.805 422L746.605 413.467L751.805 416.933C754.738 418.8 757.005 420.933 757.005 421.6C757.005 422.133 754.871 426.933 752.338 432C747.405 441.867 743.138 456.267 741.805 467.467C741.138 473.067 741.405 474.933 743.538 477.467C746.871 481.467 747.405 480.933 754.071 465.6C757.138 458.4 763.138 448.267 768.338 441.333L777.271 429.333H786.871C796.071 429.333 796.605 429.467 796.471 432.267C796.338 434.4 797.138 435.333 798.871 435.333C801.005 435.333 801.805 433.733 803.138 426C806.471 406.533 812.605 386.4 819.005 373.333C823.805 363.733 831.671 353.333 833.671 353.733C834.471 354 837.405 358.933 840.338 364.8ZM601.405 582.8C599.271 584.667 580.871 588 564.205 589.6C545.805 591.2 518.738 589.733 497.671 585.867C480.871 582.667 482.071 583.6 483.005 574.267C483.405 569.733 483.271 561.067 482.605 554.933C481.805 546.8 481.938 544 483.138 544C483.938 544 488.605 545.467 493.405 547.2C521.538 557.867 561.138 557.733 591.005 546.8L601.671 542.933L602.071 562.4C602.205 573.067 601.938 582.267 601.405 582.8ZM620.205 579.867C622.338 582.267 622.471 582.4 620.338 582.133C619.005 582 617.538 580.8 616.738 579.6C615.138 576.533 617.405 576.667 620.205 579.867ZM624.871 589.333C624.871 590.667 624.471 590.4 623.671 588.667C622.071 585.067 622.071 582.933 623.671 585.333C624.338 586.4 624.871 588.267 624.871 589.333ZM482.605 590C488.205 591.333 492.605 592.933 492.338 593.333C491.671 594.4 483.671 593.867 482.605 592.8C482.338 592.4 480.605 592.667 478.738 593.467C476.338 594.267 475.805 594.267 476.471 593.067C477.138 592 476.738 591.867 475.138 592.4C473.805 592.933 473.138 592.8 473.671 592C474.071 591.2 473.271 590.667 471.805 590.667C470.071 590.667 469.005 589.733 469.005 588.533C469.005 587.333 469.805 586.667 470.738 587.067C471.538 587.333 477.005 588.667 482.605 590ZM467.271 592.4C467.005 593.333 467.538 595.6 468.471 597.6C470.205 600.933 470.205 601.2 468.205 600.4C466.338 599.733 466.205 600 467.671 602.667C468.738 604.667 468.871 606 467.938 606.533C467.138 607.067 466.338 612.933 466.205 620.267C466.071 627.333 465.405 633.867 464.738 634.8C463.938 636 463.671 632.4 464.205 624.667C465.005 611.733 464.205 605.067 462.205 608.267C461.538 609.333 461.138 606.533 461.138 601.333C461.138 595.867 461.538 593.6 462.205 595.333C463.138 597.467 463.405 597.2 464.071 593.467C464.605 590.933 465.538 589.467 466.338 590C467.138 590.533 467.538 591.6 467.271 592.4ZM605.671 591.867C605.271 592.667 603.538 593.333 601.805 593.333C600.205 593.333 598.338 593.733 597.805 594.267C597.271 594.8 593.405 595.333 589.271 595.467L581.671 595.733L593.671 592.667C600.338 591.067 605.938 589.867 606.205 590.133C606.338 590.267 606.205 591.067 605.671 591.867ZM576.605 596.8C576.205 597.2 575.005 597.333 574.071 596.933C573.005 596.533 573.405 596.133 574.871 596.133C576.338 596 577.138 596.4 576.605 596.8ZM547.271 598.533C550.471 599.2 552.605 599.067 552.205 598.533C551.005 596.533 555.405 597.2 557.271 599.2C558.738 600.667 559.271 600.667 560.605 598.8C562.205 596.8 562.471 596.8 563.671 598.8C564.471 600.267 566.871 601.067 570.471 601.067C573.538 601.2 576.338 601.467 576.738 601.867C577.138 602.267 561.938 602.667 543.005 602.667C524.071 602.667 508.871 602.4 509.138 602C509.538 601.733 512.205 601.333 515.005 601.2C522.871 600.933 525.805 600 523.538 598.533C521.138 597.067 539.538 597.067 547.271 598.533ZM568.605 598.133C568.205 598.533 567.005 598.667 566.071 598.267C565.005 597.867 565.405 597.467 566.871 597.467C568.338 597.333 569.138 597.733 568.605 598.133ZM625.005 606.8C625.005 611.2 624.471 614.533 623.805 614.133C623.138 613.733 622.871 611.6 623.005 609.333C623.138 607.2 622.871 605.333 622.338 605.333C621.805 605.333 621.671 603.867 622.071 602C623.138 595.733 625.005 598.667 625.005 606.8ZM445.805 601.6L454.338 603.067V612.267C454.338 624.667 451.005 638.4 446.205 646L442.205 652.267L437.405 648C429.138 640.8 424.871 639.6 405.671 639.467C394.605 639.333 386.871 638.667 384.338 637.467L380.338 635.733L390.605 632.533C403.405 628.4 418.605 618.533 427.938 608C431.805 603.6 435.538 600 436.205 600C436.871 600 441.138 600.667 445.805 601.6ZM582.738 602.267C581.805 602.533 580.205 602.533 579.405 602.267C578.471 601.867 579.138 601.6 581.005 601.6C582.871 601.6 583.538 601.867 582.738 602.267ZM637.138 628C637.538 638.667 637.671 647.6 637.538 647.867C636.605 648.933 632.738 638 631.671 631.6C631.138 627.867 631.005 621.067 631.405 616.4C631.938 609.467 632.471 608 634.205 608.267C635.938 608.667 636.471 611.733 637.138 628ZM461.938 623.6C461.538 624.933 461.271 624.133 461.271 622C461.271 619.733 461.538 618.8 461.938 619.6C462.205 620.533 462.205 622.4 461.938 623.6ZM624.605 634.933C624.205 636 623.805 635.6 623.805 634.133C623.671 632.667 624.071 631.867 624.471 632.4C624.871 632.8 625.005 634 624.605 634.933ZM626.471 640.8C627.138 642.8 627.538 644.667 627.138 644.933C626.871 645.2 626.071 643.6 625.271 641.467C623.538 636.4 624.605 636 626.471 640.8ZM457.405 648.8C457.005 649.867 457.538 650.667 458.871 650.667C460.071 650.667 461.005 651.2 461.005 652C461.005 652.667 460.338 653.2 459.538 652.933C458.738 652.8 457.805 653.467 457.671 654.4C457.405 655.333 457.538 655.467 457.805 654.8C458.338 654 459.671 654 461.805 654.933C465.538 656.667 465.805 657.733 463.005 660C461.538 661.2 460.071 660.933 455.671 658.533C449.671 655.067 449.271 653.733 452.871 649.733C454.338 648.133 455.138 646.533 454.605 646.133C454.205 645.6 454.738 645.6 455.938 646C457.138 646.533 457.805 647.733 457.405 648.8ZM638.871 671.6C639.538 679.867 639.271 684 638.338 684C637.671 684 637.005 685.2 637.005 686.667C637.005 690.8 634.338 689.867 634.205 685.6C634.071 683.6 634.071 681.467 634.205 680.8C634.338 680.133 633.538 680 632.471 680.4C631.138 680.933 630.738 680.533 631.271 679.2C631.671 678.133 631.138 676.267 630.205 675.067C628.871 673.467 628.871 673.067 630.071 673.867C631.138 674.533 631.671 674 631.671 672.4C631.671 670.4 631.938 670.267 633.138 672C634.205 673.467 634.338 672.667 633.671 668.933C633.138 665.6 633.405 664 634.471 664C635.405 664 635.805 662.533 635.405 660C634.871 656.667 635.138 656.267 636.338 657.6C637.271 658.533 638.471 664.933 638.871 671.6ZM453.671 668C454.071 668.667 452.738 668.667 450.338 668C448.205 667.333 446.471 667.333 446.471 667.733C446.871 670.667 446.205 673.333 444.871 673.333C444.205 673.333 443.805 672.8 444.205 672.267C444.605 671.6 445.005 668.933 445.271 666.267L445.538 661.467L449.271 664.133C451.271 665.6 453.271 667.333 453.671 668ZM499.005 666.667C499.405 667.333 497.805 668.267 495.405 668.8C491.138 669.733 491.138 669.733 494.205 670.933C500.071 673.067 496.205 673.467 488.871 671.467C474.205 667.467 474.871 667.733 477.805 666.533C481.138 665.2 498.205 665.333 499.005 666.667ZM589.271 673.6C585.005 677.867 547.005 681.333 530.338 678.933C522.071 677.733 522.338 677.6 538.071 677.467C547.671 677.467 554.338 676.8 554.338 676C554.338 675.2 555.538 675.2 557.405 675.867C559.005 676.533 562.205 676.8 564.338 676.667C581.538 674.933 585.938 674.4 587.671 673.333C590.471 671.6 591.138 671.733 589.271 673.6ZM482.205 679.467C482.471 679.733 481.538 680 480.071 680C477.138 680 469.538 676.533 468.338 674.533C467.538 673.467 480.871 678.133 482.205 679.467ZM445.005 681.2V686.4L431.805 686.133L436.338 682.933C438.871 681.067 441.271 678.533 441.805 677.067C443.005 673.2 445.005 675.733 445.005 681.2ZM517.405 676.933C516.471 677.2 514.871 677.2 514.071 676.933C513.138 676.533 513.805 676.267 515.671 676.267C517.538 676.267 518.205 676.533 517.405 676.933ZM507.005 685.067C511.538 686.133 510.471 686.267 499.938 686.267C491.405 686.267 488.071 685.867 489.671 685.067C491.671 683.867 491.671 683.6 489.405 682C487.538 680.533 488.338 680.533 494.338 682C498.338 682.933 504.071 684.4 507.005 685.067ZM583.271 686.133C582.871 686.533 581.671 686.667 580.738 686.267C579.671 685.867 580.071 685.467 581.538 685.467C583.005 685.333 583.805 685.733 583.271 686.133ZM523.005 688C523.405 688.8 522.871 688.933 521.805 688.533C519.405 687.6 519.005 686.667 520.871 686.667C521.671 686.667 522.605 687.2 523.005 688ZM573.938 687.467C573.538 687.867 572.338 688 571.405 687.6C570.338 687.2 570.738 686.8 572.205 686.8C573.671 686.667 574.471 687.067 573.938 687.467ZM566.071 688.667C565.138 689.6 526.338 689.733 525.405 688.8C524.871 688.4 534.071 688 545.671 688C557.271 688 566.471 688.267 566.071 688.667ZM424.338 690.667C423.938 691.333 422.338 692 421.005 692C419.671 692 418.071 692.533 417.671 693.333C417.138 694.133 418.338 694.667 420.205 694.667C422.071 694.667 423.671 695.2 423.671 695.867C423.671 696.533 412.605 696.933 399.138 696.933C368.071 696.667 367.671 695.867 397.538 693.867C404.071 693.333 412.471 692.267 416.205 691.333C425.138 689.067 425.271 689.067 424.338 690.667ZM637.005 692.8C637.005 693.867 636.338 694.4 635.671 694C634.871 693.467 634.605 692.533 635.005 691.867C636.205 690 637.005 690.4 637.005 692.8ZM364.205 695.867C364.605 696.4 362.871 696.667 360.605 696.667C358.205 696.533 355.805 696.8 355.005 697.333C354.338 697.733 352.205 698.267 350.338 698.267C347.671 698.4 347.938 698 352.338 696.133C357.271 694 363.005 693.867 364.205 695.867ZM372.071 696.933C371.138 697.2 369.538 697.2 368.738 696.933C367.805 696.533 368.471 696.267 370.338 696.267C372.205 696.267 372.871 696.533 372.071 696.933ZM345.005 700C343.938 700.667 342.471 701.333 341.671 701.333C341.005 701.333 341.271 700.667 342.338 700C343.405 699.333 345.005 698.667 345.671 698.667C346.471 698.667 346.071 699.333 345.005 700ZM338.338 702.667C337.271 703.333 335.405 704 334.338 704C332.605 704 332.605 703.867 334.338 702.667C335.405 702 337.271 701.333 338.338 701.333C340.071 701.333 340.071 701.467 338.338 702.667ZM764.738 711.2C764.871 711.467 763.271 712 761.138 712.267C758.738 712.667 757.405 712.267 757.938 711.467C758.471 710.8 757.805 710.533 756.605 711.067C755.271 711.467 754.338 711.333 754.338 710.8C754.338 710.133 752.338 709.867 750.071 710.133C741.138 711.067 734.071 713.2 735.005 714.8C735.405 715.333 736.605 715.6 737.538 715.2C738.605 714.8 739.805 715.067 740.338 715.867C740.738 716.667 740.338 717.333 739.405 717.467C733.538 717.733 728.338 718.933 726.471 720.4C724.871 721.6 724.738 721.6 725.538 720.267C726.071 719.467 725.938 718.667 725.271 718.667C724.605 718.667 723.671 719.867 723.271 721.333C722.871 723.067 723.138 723.733 724.071 723.2C725.005 722.667 723.005 724.8 719.671 727.867C716.338 730.933 712.338 733.733 710.738 734.133C707.138 735.067 706.605 737.333 710.071 737.333C712.205 737.467 712.205 737.467 709.938 738.8C708.738 739.6 706.471 739.867 705.138 739.333C703.805 738.933 698.471 738.533 693.138 738.533C686.471 738.4 682.205 737.6 678.605 735.733C675.938 734.4 674.871 733.6 676.338 734.133C677.805 734.533 683.538 735.333 689.138 735.6C698.338 736.267 700.205 736 707.138 732.667C711.538 730.533 715.538 729.067 716.338 729.2C717.138 729.467 717.271 729.067 716.738 728.533C716.205 728.133 717.005 726.133 718.338 724.267C719.805 722.4 721.405 718.667 721.805 715.867L722.605 710.933L730.471 711.067C737.538 711.333 738.605 710.933 742.471 707.2L746.738 702.933L755.538 706.933C760.338 709.067 764.471 711.067 764.738 711.2ZM339.271 707.467C338.871 707.867 337.671 708 336.738 707.6C335.671 707.2 336.071 706.8 337.538 706.8C339.005 706.667 339.805 707.067 339.271 707.467ZM648.205 714.667C647.805 716.933 647.938 717.333 648.605 715.733C649.538 713.867 650.738 714.667 656.338 721.067C660.071 725.2 662.338 728.133 661.405 727.6C660.605 727.067 659.538 727.2 659.005 728C657.938 729.733 655.671 729.733 655.671 727.867C655.671 727.2 656.205 726.8 656.871 727.333C657.538 727.733 658.471 727.467 659.005 726.8C659.405 726 657.938 724.533 655.671 723.333C653.538 722.267 651.671 721.6 651.671 722C651.671 722.533 651.005 722.4 650.205 721.867C649.138 721.333 649.271 720.667 650.471 719.733C651.805 718.933 651.405 718.667 649.005 718.933C645.938 719.333 645.671 718.933 645.671 713.2C645.538 708 645.805 707.333 647.271 709.2C648.071 710.4 648.605 712.8 648.205 714.667ZM312.338 712C311.938 712.667 310.471 713.333 309.271 713.333C307.271 713.333 307.271 713.067 309.005 712C311.671 710.267 313.405 710.267 312.338 712ZM310.738 715.6C317.005 717.733 317.271 718 313.805 718.4C311.671 718.667 307.005 718.667 303.405 718.4C299.405 718.133 296.871 718.533 296.471 719.6C295.805 721.2 290.338 721.467 290.338 720C290.338 719.333 300.071 714.533 303.405 713.467C303.671 713.333 307.005 714.4 310.738 715.6ZM768.738 716.667C769.138 717.067 767.538 717.333 765.271 717.333C762.871 717.333 761.005 716.667 761.005 716C761.005 714.667 767.271 715.2 768.738 716.667ZM805.671 728C810.071 730 812.605 731.867 811.271 731.867C809.938 732 807.538 731.333 806.071 730.533C804.605 729.733 800.338 728.8 796.738 728.667C789.271 728.133 786.338 726.667 792.871 726.667C795.405 726.667 796.871 726.133 796.338 725.333C795.005 723.333 797.005 723.867 805.671 728ZM287.138 728.4C287.671 728.933 286.205 729.333 283.805 729.333C281.271 729.333 279.805 728.8 280.338 728C281.138 726.667 285.671 726.933 287.138 728.4ZM267.005 733.467C266.471 734.133 265.271 734.667 264.205 734.667C263.138 734.667 262.338 735.2 262.338 736C262.338 736.667 263.271 736.933 264.338 736.533C265.671 736 266.338 736.533 266.338 738C266.338 739.733 265.271 740.133 260.338 739.6C257.005 739.333 254.338 739.467 254.338 740C254.338 740.533 252.871 741.6 251.005 742.4C248.471 743.6 247.671 743.6 247.671 742.4C247.671 741.2 247.271 741.2 246.071 742.4C245.138 743.333 243.805 744 243.138 744C242.338 744 243.538 742.8 245.671 741.333C247.938 739.867 250.471 738.933 251.405 739.333C252.338 739.733 252.871 739.467 252.471 738.8C251.671 737.467 265.005 730.533 266.605 731.467C267.138 731.867 267.405 732.8 267.005 733.467ZM671.005 738.667C671.405 739.467 670.871 739.6 669.805 739.2C667.405 738.267 667.005 737.333 668.871 737.333C669.671 737.333 670.605 737.867 671.005 738.667ZM817.405 738.267C816.471 738.533 814.871 738.533 814.071 738.267C813.138 737.867 813.805 737.6 815.671 737.6C817.538 737.6 818.205 737.867 817.405 738.267ZM833.671 742.4C833.271 742.8 832.205 742.4 831.271 741.467C830.071 740.133 830.205 740 832.071 740.8C833.405 741.2 834.071 742 833.671 742.4ZM842.738 746.933C844.738 748.4 846.338 750.267 846.338 751.067C846.338 752.133 845.938 752.133 845.271 751.333C844.738 750.533 842.338 750 839.805 750C837.138 750 835.005 749.2 834.605 748.133C834.205 746.933 834.738 746.667 836.871 747.333C840.338 748.4 840.471 746.933 837.405 744.4C834.338 741.867 837.805 743.6 842.738 746.933ZM245.005 748C245.005 748.667 244.338 749.333 243.538 749.333C242.871 749.333 242.605 748.667 243.005 748C243.405 747.2 244.071 746.667 244.471 746.667C244.738 746.667 245.005 747.2 245.005 748ZM861.005 760.133C866.205 764.667 865.671 764.533 857.405 758.533C852.071 754.8 847.671 751.467 847.671 751.067C847.671 749.867 855.138 755.067 861.005 760.133ZM233.671 757.2C234.071 757.867 233.805 758.8 233.005 759.333C232.338 759.733 231.671 759.2 231.671 758.133C231.671 755.733 232.471 755.333 233.671 757.2ZM223.405 762.4C220.605 762.933 220.205 764.8 222.738 765.867C223.805 766.267 223.538 767.067 221.805 768.533C218.871 770.933 216.471 771.333 217.671 769.333C218.071 768.533 217.805 768 217.005 768C215.938 768 215.671 769.2 216.205 771.333C216.738 773.333 216.471 774.667 215.671 774.667C214.871 774.667 214.338 775.733 214.471 776.933C214.871 781.067 214.471 781.467 211.538 779.867C209.271 778.667 208.471 778.8 207.538 780.133C207.005 781.067 206.071 781.467 205.538 781.067C204.471 779.867 209.271 772.933 216.071 765.733C219.671 762 222.071 760.533 223.538 761.067C225.405 761.867 225.405 762 223.405 762.4ZM873.005 770L877.538 774.667L873.005 773.2C870.471 772.267 867.805 771.067 867.005 770.4C866.205 769.6 866.605 769.467 868.071 770C869.405 770.533 870.338 770.267 870.338 769.467C870.338 768.667 869.805 768 869.005 768C868.338 768 867.671 767.333 867.671 766.667C867.671 764.667 868.071 764.933 873.005 770ZM204.471 784.8C203.271 785.867 202.338 787.867 202.338 789.067C202.338 790.667 201.938 790.8 200.738 789.6C199.538 788.4 199.805 787.467 201.671 785.333C203.005 783.867 204.605 782.667 205.271 782.667C205.938 782.667 205.538 783.6 204.471 784.8ZM894.338 794C896.205 796.533 896.205 796.533 894.071 794.8C892.738 793.867 891.671 792.4 891.671 791.6C891.671 790.8 891.805 790.533 892.071 790.8C892.205 791.067 893.271 792.533 894.338 794ZM902.338 805.733C906.605 813.333 907.005 814.667 904.871 814.667C904.205 814.667 903.805 814.133 904.205 813.6C905.405 811.467 901.005 806.8 898.605 807.467C896.738 808.133 896.605 808 898.338 806.8C900.071 805.6 899.938 804.933 897.805 801.2C896.471 798.8 895.938 797.333 896.871 797.867C897.671 798.4 900.205 802 902.338 805.733ZM193.005 802.4C192.471 804.533 192.205 807.867 192.338 809.733C192.605 812.133 192.071 813.333 190.871 813.333C189.805 813.333 189.005 812.667 189.005 811.867C189.005 811.2 188.471 810.933 187.671 811.333C186.071 812.4 187.271 808.8 190.738 802.933C193.805 797.733 194.471 797.467 193.005 802.4ZM187.538 819.867C187.671 821.2 187.138 821.067 185.805 819.333C184.738 817.867 184.338 815.867 184.738 814.8C185.271 813.2 185.671 813.333 186.471 815.467C187.005 816.8 187.538 818.8 187.538 819.867ZM911.005 822.667C911.405 823.333 911.138 824 910.471 824C909.671 824 909.005 823.333 909.005 822.667C909.005 821.867 909.271 821.333 909.538 821.333C909.938 821.333 910.605 821.867 911.005 822.667ZM926.338 857.2C929.271 864.8 931.538 871.2 931.271 871.467C930.605 872.267 923.671 856.933 923.671 854.533C923.538 853.333 923.005 853.467 921.671 855.2C920.605 856.667 919.671 857.2 919.671 856.4C919.671 855.6 919.271 853.867 918.738 852.533C918.071 850.8 918.338 850.4 920.071 851.067C922.471 852 923.138 850.667 921.138 848.533C919.405 846.667 917.671 840.4 919.405 842C920.205 842.667 923.271 849.6 926.338 857.2ZM171.271 860.4C171.671 869.2 171.538 869.733 169.805 866.667C168.738 864.8 168.205 862.933 168.471 862.4C168.871 861.733 168.471 861.333 167.805 861.333C167.005 861.333 166.338 864.267 166.338 868.267C166.338 873.333 165.938 874.8 165.005 873.333C163.938 871.6 163.671 871.733 163.671 873.867C163.671 875.733 163.271 876.133 162.338 875.2C161.405 874.267 162.338 870.133 165.271 862.267C167.671 855.867 169.938 850.667 170.338 850.667C170.738 850.667 171.138 855.067 171.271 860.4ZM922.338 860C922.338 860.667 921.805 861.333 921.005 861.333C920.338 861.333 919.671 860.667 919.671 860C919.671 859.2 920.338 858.667 921.005 858.667C921.805 858.667 922.338 859.2 922.338 860ZM942.205 904C942.205 905.2 941.671 905.067 941.005 903.333C940.338 901.867 939.805 899.733 939.805 898.667C939.805 897.467 940.338 897.6 941.005 899.333C941.671 900.8 942.205 902.933 942.205 904ZM944.871 912.267C945.005 912.8 944.205 912.933 943.138 912.533C942.071 912.133 941.538 910.8 942.071 908.933C942.738 906.267 942.871 906.267 943.805 908.8C944.338 910.133 944.871 911.733 944.871 912.267ZM149.938 929.333C149.538 931.467 149.271 930.933 149.138 927.467C149.005 923.333 148.605 922.533 146.871 923.2C145.271 923.867 144.871 923.467 145.671 921.733C146.071 920.4 146.871 917.467 147.405 915.333C148.071 911.733 148.338 912.133 149.271 918.667C149.938 922.667 150.205 927.467 149.938 929.333ZM942.338 916.933C942.338 919.733 941.938 920.133 941.138 918.8C940.471 917.733 940.205 916.133 940.605 915.067C941.671 912.267 942.338 913.067 942.338 916.933ZM945.938 917.6C945.538 918.667 945.138 918.267 945.138 916.8C945.005 915.333 945.405 914.533 945.805 915.067C946.205 915.467 946.338 916.667 945.938 917.6ZM948.871 926C948.871 926.667 948.338 926.4 947.671 925.333C947.005 924.267 946.471 922.4 946.471 921.333C946.471 919.2 948.738 923.467 948.871 926ZM144.605 930.533C144.471 933.467 143.938 935.333 143.271 934.8C142.338 933.867 143.405 925.333 144.471 925.333C144.738 925.333 144.871 927.733 144.605 930.533ZM954.205 945.333C954.338 947.067 954.205 947.067 953.005 945.333C952.338 944.267 951.805 942.133 951.805 940.667V938L953.005 940.667C953.671 942.133 954.205 944.267 954.205 945.333ZM808.605 940.8C808.205 941.2 807.005 941.333 806.071 940.933C805.005 940.533 805.405 940.133 806.871 940.133C808.338 940 809.138 940.4 808.605 940.8ZM802.605 944.667C802.338 946.533 801.805 948 801.538 948C801.271 948 801.005 946.533 801.005 944.667C801.005 942.8 801.538 941.333 802.205 941.333C802.738 941.333 803.005 942.8 802.605 944.667ZM812.205 943.467C812.605 944.533 812.471 945.067 811.671 944.667C810.871 944.267 810.338 943.333 810.338 942.533C810.338 940.667 811.271 941.067 812.205 943.467ZM307.405 954C306.605 959.867 305.538 965.6 304.738 966.667C303.805 968.267 303.671 968.133 304.205 966C304.605 964.533 305.271 959.733 305.671 955.333C306.605 946.8 307.671 942.133 308.338 942.933C308.605 943.2 308.205 948.133 307.405 954ZM318.605 964C318.605 989.333 315.938 992.533 315.405 968C315.271 962.533 317.405 943.867 318.071 944.533C318.338 944.933 318.605 953.733 318.605 964ZM956.871 954.667C957.005 956.4 956.871 956.4 955.671 954.667C955.005 953.6 954.471 951.467 954.471 950V947.333L955.671 950C956.338 951.467 956.871 953.6 956.871 954.667ZM953.005 956.667C953.005 962.667 951.138 962.667 950.738 956.667C950.471 954.133 951.005 952 951.671 952C952.471 952 953.005 954.133 953.005 956.667ZM136.338 960C135.138 965.467 134.071 964.4 135.138 958.8C135.671 956.533 136.338 954.8 136.605 955.2C137.005 955.467 136.871 957.733 136.338 960ZM803.271 957.6C802.871 958.667 802.471 958.267 802.471 956.8C802.338 955.333 802.738 954.533 803.138 955.067C803.538 955.467 803.671 956.667 803.271 957.6ZM813.938 960.933C813.538 962.267 813.271 961.2 813.271 958.667C813.271 956.133 813.538 955.067 813.938 956.267C814.205 957.6 814.205 959.733 813.938 960.933ZM960.338 970.4C959.671 971.067 957.005 961.2 957.138 958.667C957.138 957.6 958.071 959.6 959.005 963.333C960.071 966.933 960.605 970.133 960.338 970.4ZM139.805 968C138.605 971.067 138.605 970.933 138.871 966.667C139.538 960 139.938 958.933 140.605 962C140.871 963.6 140.471 966.267 139.805 968ZM300.338 974C301.538 986.533 301.271 998 299.805 1007.33C299.138 1012 298.738 1006.27 298.605 988.133C298.471 973.867 298.605 962.533 298.871 962.8C299.138 963.067 299.805 968.133 300.338 974ZM804.605 967.6C804.205 968.933 803.938 968.133 803.938 966C803.938 963.733 804.205 962.8 804.605 963.6C804.871 964.533 804.871 966.4 804.605 967.6ZM133.538 970.533C133.005 972.8 132.338 974.533 132.071 974.133C131.671 973.867 131.805 971.6 132.338 969.333C133.538 963.867 134.605 964.933 133.538 970.533ZM815.271 970.933C814.871 971.867 814.605 971.2 814.605 969.333C814.605 967.467 814.871 966.8 815.271 967.6C815.538 968.533 815.538 970.133 815.271 970.933ZM806.338 974.933C806.338 976.667 806.738 981.333 807.138 985.333C807.671 989.333 807.671 992.267 807.138 991.867C806.738 991.467 805.938 987.6 805.538 983.2C805.138 978.933 804.605 974.533 804.338 973.6C803.938 972.8 804.338 972 805.005 972C805.805 972 806.338 973.333 806.338 974.933ZM313.938 978.933C313.538 980 313.138 979.6 313.138 978.133C313.005 976.667 313.405 975.867 313.805 976.4C314.205 976.8 314.338 978 313.938 978.933ZM964.205 984.4C964.738 986.933 964.605 987.867 963.671 987.333C963.005 986.933 962.338 984.933 962.338 983.067C962.338 978.8 963.005 979.333 964.205 984.4ZM128.605 989.6C128.205 990.667 127.805 990.267 127.805 988.8C127.671 987.333 128.071 986.533 128.471 987.067C128.871 987.467 129.005 988.667 128.605 989.6ZM318.738 988.667C319.271 989.733 319.005 990.933 318.338 991.333C317.538 991.867 317.005 991.867 317.005 991.467C317.005 991.2 316.605 990 316.205 988.8C315.805 987.6 315.938 986.667 316.738 986.667C317.405 986.667 318.338 987.6 318.738 988.667ZM817.938 990.933C817.538 992 817.138 991.6 817.138 990.133C817.005 988.667 817.405 987.867 817.805 988.4C818.205 988.8 818.338 990 817.938 990.933ZM822.071 1009.47C820.738 1010.4 820.738 1010.67 822.338 1010.67C824.071 1010.67 824.071 1010.8 822.338 1012C821.271 1012.67 821.005 1013.33 821.671 1013.33C822.471 1013.33 823.138 1019.6 823.138 1029.07C823.271 1042.67 823.138 1043.47 822.338 1036C819.405 1012.67 818.071 997.2 818.871 996.4C819.271 995.867 819.671 997.733 819.671 1000.4C819.671 1003.07 820.205 1005.47 820.738 1005.87C821.405 1006.27 821.805 1003.47 821.671 999.6C821.405 989.067 823.005 988.667 823.405 999.2C823.671 1005.73 823.271 1008.8 822.071 1009.47ZM126.871 997.867C126.471 1000.67 125.805 1002.53 125.405 1002.13C125.138 1001.87 125.271 999.467 125.805 996.8C126.205 994 126.871 992.133 127.271 992.533C127.538 992.8 127.405 995.2 126.871 997.867ZM965.938 996.267C965.538 997.2 965.271 996.533 965.271 994.667C965.271 992.8 965.538 992.133 965.938 992.933C966.205 993.867 966.205 995.467 965.938 996.267ZM309.671 1015.07C308.471 1024.67 307.538 1035.6 307.671 1039.33C307.938 1049.87 307.805 1052.4 306.338 1053.87C303.671 1056.53 303.538 1053.2 305.538 1036.53C309.138 1005.33 310.738 994 311.405 995.733C311.671 996.667 310.871 1005.33 309.671 1015.07ZM961.938 1000.93C961.538 1002.27 961.271 1001.2 961.271 998.667C961.271 996.133 961.538 995.067 961.938 996.267C962.205 997.6 962.205 999.733 961.938 1000.93ZM130.071 1007.33C130.205 1009.87 129.671 1012.27 129.005 1012.67C128.205 1013.2 127.671 1011.2 127.671 1008.13C127.671 1001.47 129.805 1000.8 130.071 1007.33ZM968.738 1006C968.338 1006.4 967.538 1005.73 967.138 1004.4C966.338 1002.53 966.471 1002.4 967.805 1003.6C968.738 1004.53 969.138 1005.6 968.738 1006ZM806.338 1005.33C806.338 1006 805.671 1006.67 804.871 1006.67C804.205 1006.67 803.938 1006 804.338 1005.33C804.738 1004.53 805.405 1004 805.805 1004C806.071 1004 806.338 1004.53 806.338 1005.33ZM123.271 1010.93C122.871 1012 122.471 1011.6 122.471 1010.13C122.338 1008.67 122.738 1007.87 123.138 1008.4C123.538 1008.8 123.671 1010 123.271 1010.93ZM805.938 1010.93C805.538 1012 805.138 1011.6 805.138 1010.13C805.005 1008.67 805.405 1007.87 805.805 1008.4C806.205 1008.8 806.338 1010 805.938 1010.93ZM121.938 1016.27C121.538 1017.33 121.138 1016.93 121.138 1015.47C121.005 1014 121.405 1013.2 121.805 1013.73C122.205 1014.13 122.338 1015.33 121.938 1016.27ZM297.938 1022.27C297.538 1023.6 297.271 1022.53 297.271 1020C297.271 1017.47 297.538 1016.4 297.938 1017.6C298.205 1018.93 298.205 1021.07 297.938 1022.27ZM297.005 1031.33C297.005 1034.67 296.605 1037.33 295.938 1037.33C295.405 1037.33 295.138 1034.67 295.405 1031.33C295.671 1028 296.205 1025.33 296.471 1025.33C296.738 1025.33 297.005 1028 297.005 1031.33ZM117.805 1041.2C117.805 1046.53 117.138 1049.73 116.605 1048.93C115.938 1048 115.671 1048.53 116.071 1050.27C116.471 1052 116.205 1053.33 115.538 1053.33C114.871 1053.33 114.338 1052.4 114.338 1051.2C114.338 1048.67 117.271 1032 117.805 1032C117.938 1032 117.938 1036.13 117.805 1041.2ZM812.605 1038.27C812.205 1039.6 811.938 1038.53 811.938 1036C811.938 1033.47 812.205 1032.4 812.605 1033.6C812.871 1034.93 812.871 1037.07 812.605 1038.27ZM976.205 1042C976.871 1045.87 976.738 1046.8 975.671 1045.33C974.471 1043.6 974.205 1043.6 973.005 1045.33C971.938 1046.93 971.671 1046.8 971.671 1044.27C971.671 1042.53 972.205 1041.47 972.871 1041.87C973.538 1042.4 973.805 1040.13 973.538 1037.07C972.871 1030.13 974.871 1033.87 976.205 1042ZM295.271 1041.6C294.871 1042.67 294.471 1042.27 294.471 1040.8C294.338 1039.33 294.738 1038.53 295.138 1039.07C295.538 1039.47 295.671 1040.67 295.271 1041.6ZM814.071 1050.13C813.671 1052 813.405 1051.73 812.738 1048.93C812.338 1046.4 812.471 1045.6 813.271 1046.4C814.071 1047.2 814.338 1048.8 814.071 1050.13ZM973.938 1052C974.205 1053.47 973.671 1054.67 973.005 1054.67C972.205 1054.67 971.671 1053.07 971.671 1051.07C971.671 1047.2 973.271 1047.87 973.938 1052ZM288.605 1052.27C288.205 1053.33 287.805 1052.93 287.805 1051.47C287.671 1050 288.071 1049.2 288.471 1049.73C288.871 1050.13 289.005 1051.33 288.605 1052.27Z" fill="currentColor"/>
<path d="M439.805 250.8C431.405 252.267 412.071 261.067 408.605 265.067C405.671 268.267 406.071 273.067 409.271 275.2C411.005 276.267 414.205 275.733 422.605 272.933C441.805 266.8 450.338 265.867 465.671 268.533C489.405 272.8 491.138 272.8 493.538 269.067C497.671 262.8 494.071 259.467 477.405 254.267C465.005 250.267 450.205 248.933 439.805 250.8Z" fill="currentColor"/>
<path d="M619.671 250.667C602.338 253.067 588.204 259.2 586.871 264.933C585.804 269.2 587.671 272.533 591.538 273.067C593.138 273.333 599.938 272.133 606.738 270.533C623.538 266.4 642.871 266.4 658.204 270.533C668.471 273.2 669.538 273.333 672.604 271.333C676.871 268.4 676.071 265.6 669.671 261.067C657.138 252.533 636.604 248.133 619.671 250.667Z" fill="currentColor"/>
<path d="M326.738 332.933C326.204 334.4 326.738 335.733 328.338 336.533C329.671 337.333 333.404 340.4 336.604 343.2L342.471 348.4L339.138 351.2C334.738 355.067 333.005 358.8 333.005 365.2C333.005 374.133 337.805 373.6 339.271 364.533C339.671 361.733 341.005 358.267 342.071 357.067C345.805 352.667 347.138 355.467 352.871 379.333C353.404 381.467 354.605 383.333 355.671 383.333C361.671 383.333 355.538 356.533 347.005 344.933C342.738 339.333 331.804 330.667 328.738 330.667C328.071 330.667 327.138 331.733 326.738 332.933Z" fill="currentColor"/>
<path d="M746.071 334.533C737.805 339.867 731.005 349.333 727.538 360.4C724.071 371.733 723.404 383.333 726.338 383.333C727.538 383.333 728.738 381.333 729.538 378C731.538 368.667 734.338 359.333 735.671 357.333C737.805 354 741.538 357.6 742.871 364.4C743.804 368.933 744.738 370.667 746.471 370.667C749.538 370.667 750.338 368 749.138 362.4C747.671 356.133 745.405 352.267 742.205 350.533C739.405 349.067 739.538 348.933 743.805 344.4C746.338 341.867 750.071 338.933 752.071 337.867C755.671 335.867 756.605 332.133 753.671 331.067C752.871 330.8 749.405 332.4 746.071 334.533Z" fill="currentColor"/>
<path d="M528.338 345.6C525.938 355.733 521.005 385.467 521.005 389.867C521.005 397.867 525.671 404.8 533.805 408.8C542.338 412.933 551.005 412.933 551.005 408.667C551.005 406.667 549.938 405.867 547.005 405.6C539.271 404.933 531.671 401.2 529.671 397.333C526.871 392 527.138 386.4 531.138 365.2C533.138 355.067 534.338 345.867 533.938 344.667C532.738 341.6 529.138 342.267 528.338 345.6Z" fill="currentColor"/>
<path d="M847.938 484.133C841.005 485.467 834.605 489.867 832.871 494.267C828.471 506 835.005 522.8 846.471 528.8C857.005 534.267 872.205 533.6 879.405 527.333C882.738 524.533 883.005 523.467 882.871 514.4C882.738 500.267 877.538 491.6 865.671 485.733C861.405 483.6 854.071 482.933 847.938 484.133ZM852.071 492C848.205 495.733 845.005 504.267 845.005 510.533C845.005 518.133 852.605 524.4 858.071 521.467C865.271 517.6 871.538 504.8 869.671 497.6C868.871 494.533 869.005 494.4 871.138 496.133C875.005 499.333 878.338 508.267 878.338 515.6C878.338 521.467 877.805 522.933 875.405 524.533C867.271 529.733 852.071 528 844.205 521.067C835.271 513.2 833.671 496 841.405 491.867C845.005 489.867 850.338 488.267 853.538 488.133C855.805 488 855.538 488.667 852.071 492Z" fill="currentColor"/>
<path d="M935.005 510.533C925.405 514.933 915.671 527.867 915.671 536.267C915.671 544.533 935.138 555.867 946.205 554C962.205 551.333 973.538 533.867 967.138 521.6C963.138 513.867 953.271 508 944.738 508C942.338 508 937.938 509.2 935.005 510.533ZM956.071 516.667C965.938 523.467 967.005 531.333 959.405 540.533C949.938 552.133 934.205 552 923.138 540.267L919.405 536.133L922.205 530.267C923.805 527.067 926.205 523.333 927.671 522C930.338 519.6 930.338 519.6 928.871 523.867C926.738 529.733 928.205 538.267 931.805 542.133C942.071 553.067 957.271 532 949.671 517.333C947.005 512.267 949.138 512 956.071 516.667Z" fill="currentColor"/>
<path d="M882.738 550.8C879.938 553.6 880.738 559.467 884.338 563.733C888.471 568.8 888.471 569.867 884.205 573.2C879.938 576.533 873.404 576.8 869.138 573.867C866.871 572.133 865.804 572 864.604 573.333C863.404 574.533 863.938 575.6 866.738 578.133C871.138 581.867 878.338 582.4 884.205 579.333C886.338 578.133 888.071 577.467 888.205 577.6C890.071 582.533 898.738 589.867 901.538 588.933C904.605 587.867 903.404 584.533 899.404 582.667C891.538 579.067 891.138 568 899.005 568C902.338 568 909.005 562.4 909.005 559.733C909.005 558.8 908.471 557.333 907.938 556.4C905.138 552 885.671 547.733 882.738 550.8Z" fill="currentColor"/>
</svg>
